Don't  Be Afraid Of The Dark(2011)


99 min  -  Horror | Thriller   -  7 October 2011 (UK)

Summary
A young girl is sent to live with her estranged father and his girlfriend at their new home. The father, Alex has plans to spruce up the home with the help of his interior decorator girlfriend, Kim. The previous owner of the home was a famous painter who mysteriously disappeared. Alex's daughter, Sally, soon discovers the cause of the painter's disappearance.

Cast
Bruce Gleeson 	... 	Buggy Driver
Edwina Ritchard ... 	Housekeeper
Garry McDonald 	... 	Blackwood
Bailee Madison 	... 	Sally
Katie Holmes 	... 	Kim
Guy Pearce 	... 	Alex
Jack Thompson 	... 	Harris
Julia Blake 	... 	Mrs. Underhill
David Tocci 	... 	Workman
Lance Drisdale 	... 	Policeman
Nicholas Bell 	... 	Psychiatrist
Libby Gott 	... 	Nurse
James Mackay 	... 	Librarian
Emelia Burns    ... 	Caterer 
Carolyn Shakespeare-Allen... 	Airport Cart Driver

IMDb Link:
 
http://www.imdb.com/title/tt1270761/



General Information
Complete name                    : Don't Be Afraid Of The Dark (2011) HDRip XviD BBnRG.avi
Format                           : AVI
Format/Info                      : Audio Video Interleave
File size                        : 864 MiB
Duration                         : 1h 38mn
Overall bit rate                 : 1 223 Kbps
Writing application              : VirtualDubMod 1.5.4.1 (build 2178/release)
Writing library                  : VirtualDubMod build 2178/release

Video
ID                               : 0
Format                           : MPEG-4 Visual
Format profile                   : Advanced Simple@L5
Format settings, BVOP            : 1
Format settings, QPel            : No
Format settings, GMC             : No warppoints
Format settings, Matrix          : Custom
Codec ID                         : XVID
Codec ID/Hint                    : XviD
Duration                         : 1h 38mn
Bit rate                         : 1 023 Kbps
Width                            : 720 pixels
Height                           : 336 pixels
Display aspect ratio             : 2.2:1
Frame rate                       : 29.970 fps
Color space                      : YUV
Chroma subsampling               : 4:2:0
Bit depth                        : 8 bits
Scan type                        : Progressive
Compression mode                 : Lossy
Bits/(Pixel*Frame)               : 0.141
Stream size                      : 723 MiB (84%)
Writing library                  : XviD 57

Audio
ID                               : 1
Format                           : AC-3
Format/Info                      : Audio Coding 3
Mode extension                   : CM (complete main)
Codec ID                         : 2000
Duration                         : 1h 38mn
Bit rate mode                    : Constant
Bit rate                         : 192 Kbps
Channel(s)                       : 2 channels
Channel positions                : Front: L R
Sampling rate                    : 48.0 KHz
Bit depth                        : 16 bits
Compression mode                 : Lossy
Stream size                      : 136 MiB (16%)
Alignment                        : Split accross interleaves
Interleave, duration             : 96 ms (2.88 video frames)
Interleave, preload duration     : 96 ms

Encoder:     FridayToker
Source(s):  ViP3R (thanks)

Another fine release from BBnRG

We aim to bring you only the best :)

Screens
 
http://i1124.photobucket.com/albums/l569/FridayToker/vlcsnap00162i.png 
http://i1124.photobucket.com/albums/l569/FridayToker/vlcsnap00161.png 
http://i1124.photobucket.com/albums/l569/FridayToker/vlcsnap00160.png 
http://i1124.photobucket.com/albums/l569/FridayToker/vlcsnap00177.png 
http://i1124.photobucket.com/albums/l569/FridayToker/vlcsnap00188.png

Please seed as long as possible

You will have to be patient with this upload as i have very limited bandwidth